<svg xmlns="http://www.w3.org/2000/svg" xmlns:xlink="http://www.w3.org/1999/xlink" width="100" zoomAndPan="magnify" viewBox="0 0 75 37.5" height="50" preserveAspectRatio="xMidYMid meet" version="1.0"><defs><g/><clipPath id="7a01cbc126"><rect x="0" width="23" y="0" height="32"/></clipPath><clipPath id="1009419435"><path d="M 22 6 L 33.886719 6 L 33.886719 19 L 22 19 Z M 22 6 " clip-rule="nonzero"/></clipPath><clipPath id="f4f9acacc4"><rect x="0" width="34" y="0" height="25"/></clipPath></defs><g transform="matrix(1, 0, 0, 1, 42, -0.000000000000001443)"><g clip-path="url(#7a01cbc126)"><g fill="#1b1b1b" fill-opacity="1"><g transform="translate(0.492135, 25.868521)"><g><path d="M 5 0.1875 C 3.625 0.1875 2.554688 -0.332031 1.796875 -1.375 C 1.046875 -2.425781 0.671875 -3.832031 0.671875 -5.59375 C 0.671875 -7.363281 1.054688 -8.773438 1.828125 -9.828125 C 2.609375 -10.878906 3.679688 -11.40625 5.046875 -11.40625 C 5.984375 -11.40625 6.707031 -11.195312 7.21875 -10.78125 C 7.726562 -10.363281 8.082031 -9.941406 8.28125 -9.515625 L 8.4375 -9.515625 L 8.4375 -11.171875 L 11.765625 -11.171875 L 11.765625 0 L 8.4375 0 L 8.4375 -1.796875 L 8.28125 -1.796875 C 8.0625 -1.347656 7.695312 -0.90625 7.1875 -0.46875 C 6.675781 -0.03125 5.945312 0.1875 5 0.1875 Z M 6.25 -2.453125 C 6.988281 -2.453125 7.539062 -2.765625 7.90625 -3.390625 C 8.28125 -4.015625 8.46875 -4.753906 8.46875 -5.609375 C 8.46875 -6.453125 8.28125 -7.1875 7.90625 -7.8125 C 7.539062 -8.445312 6.988281 -8.765625 6.25 -8.765625 C 5.476562 -8.765625 4.910156 -8.457031 4.546875 -7.84375 C 4.191406 -7.226562 4.015625 -6.492188 4.015625 -5.640625 C 4.015625 -4.765625 4.191406 -4.015625 4.546875 -3.390625 C 4.910156 -2.765625 5.476562 -2.453125 6.25 -2.453125 Z M 6.25 -2.453125 "/></g></g></g><g fill="#1b1b1b" fill-opacity="1"><g transform="translate(11.80829, 25.868521)"><g><path d="M 1.484375 -11.171875 L 4.75 -11.171875 L 4.75 0 L 1.484375 0 Z M 3.109375 -13.03125 C 2.597656 -13.03125 2.171875 -13.203125 1.828125 -13.546875 C 1.492188 -13.890625 1.328125 -14.304688 1.328125 -14.796875 C 1.328125 -15.304688 1.492188 -15.734375 1.828125 -16.078125 C 2.171875 -16.421875 2.597656 -16.59375 3.109375 -16.59375 C 3.609375 -16.59375 4.03125 -16.421875 4.375 -16.078125 C 4.726562 -15.734375 4.90625 -15.304688 4.90625 -14.796875 C 4.90625 -14.304688 4.726562 -13.890625 4.375 -13.546875 C 4.03125 -13.203125 3.609375 -13.03125 3.109375 -13.03125 Z M 3.109375 -13.03125 "/></g></g></g><g fill="#1b1b1b" fill-opacity="1"><g transform="translate(16.347419, 25.868521)"><g><path d="M 3.546875 0.1875 C 3.023438 0.1875 2.59375 0.015625 2.25 -0.328125 C 1.914062 -0.679688 1.75 -1.113281 1.75 -1.625 C 1.75 -2.132812 1.914062 -2.5625 2.25 -2.90625 C 2.59375 -3.25 3.023438 -3.421875 3.546875 -3.421875 C 4.066406 -3.421875 4.5 -3.25 4.84375 -2.90625 C 5.1875 -2.5625 5.359375 -2.132812 5.359375 -1.625 C 5.359375 -1.113281 5.179688 -0.679688 4.828125 -0.328125 C 4.484375 0.015625 4.054688 0.1875 3.546875 0.1875 Z M 3.546875 0.1875 "/></g></g></g></g></g><g transform="matrix(1, 0, 0, 1, 9, 8)"><g clip-path="url(#f4f9acacc4)"><g fill="#1b1b1b" fill-opacity="1"><g transform="translate(0.498738, 17.918438)"><g><path d="M 9.203125 -16.5 C 9.734375 -16.5 10.21875 -16.441406 10.65625 -16.328125 C 11.09375 -16.222656 11.5625 -16.078125 12.0625 -15.890625 C 12.125 -15.867188 12.300781 -15.804688 12.59375 -15.703125 C 12.882812 -15.597656 13.144531 -15.546875 13.375 -15.546875 C 13.59375 -15.546875 13.816406 -15.625 14.046875 -15.78125 C 14.285156 -15.945312 14.472656 -16.179688 14.609375 -16.484375 L 15.078125 -16.484375 L 13.84375 -11.203125 L 13.421875 -11.203125 C 13.421875 -11.265625 13.4375 -11.394531 13.46875 -11.59375 C 13.5 -11.789062 13.515625 -12.007812 13.515625 -12.25 C 13.515625 -13.03125 13.296875 -13.675781 12.859375 -14.1875 C 12.421875 -14.707031 11.890625 -15.085938 11.265625 -15.328125 C 10.640625 -15.566406 10.039062 -15.6875 9.46875 -15.6875 C 8.59375 -15.6875 7.882812 -15.441406 7.34375 -14.953125 C 6.800781 -14.472656 6.53125 -13.890625 6.53125 -13.203125 C 6.53125 -12.648438 6.703125 -12.148438 7.046875 -11.703125 C 7.390625 -11.253906 7.988281 -10.644531 8.84375 -9.875 L 9.515625 -9.25 C 10.359375 -8.488281 11 -7.863281 11.4375 -7.375 C 11.882812 -6.894531 12.226562 -6.40625 12.46875 -5.90625 C 12.707031 -5.414062 12.828125 -4.875 12.828125 -4.28125 C 12.828125 -3.519531 12.617188 -2.78125 12.203125 -2.0625 C 11.785156 -1.351562 11.15625 -0.769531 10.3125 -0.3125 C 9.476562 0.132812 8.457031 0.359375 7.25 0.359375 C 6.5625 0.359375 5.988281 0.300781 5.53125 0.1875 C 5.082031 0.0820312 4.609375 -0.0820312 4.109375 -0.3125 C 3.984375 -0.375 3.796875 -0.453125 3.546875 -0.546875 C 3.222656 -0.671875 2.988281 -0.734375 2.84375 -0.734375 C 2.5625 -0.734375 2.316406 -0.640625 2.109375 -0.453125 C 1.910156 -0.265625 1.726562 -0.00390625 1.5625 0.328125 L 1.125 0.328125 L 2.375 -5.59375 L 2.828125 -5.59375 C 2.765625 -5.226562 2.734375 -4.816406 2.734375 -4.359375 C 2.734375 -3.523438 2.929688 -2.8125 3.328125 -2.21875 C 3.722656 -1.632812 4.234375 -1.191406 4.859375 -0.890625 C 5.492188 -0.597656 6.144531 -0.453125 6.8125 -0.453125 C 7.46875 -0.453125 8.066406 -0.585938 8.609375 -0.859375 C 9.148438 -1.128906 9.578125 -1.503906 9.890625 -1.984375 C 10.210938 -2.460938 10.375 -3 10.375 -3.59375 C 10.375 -4.070312 10.269531 -4.515625 10.0625 -4.921875 C 9.863281 -5.335938 9.613281 -5.703125 9.3125 -6.015625 C 9.019531 -6.335938 8.601562 -6.75 8.0625 -7.25 L 7.34375 -7.890625 L 6.859375 -8.34375 C 6.003906 -9.144531 5.359375 -9.835938 4.921875 -10.421875 C 4.484375 -11.003906 4.265625 -11.65625 4.265625 -12.375 C 4.265625 -13.257812 4.519531 -14.015625 5.03125 -14.640625 C 5.550781 -15.265625 6.191406 -15.726562 6.953125 -16.03125 C 7.722656 -16.34375 8.472656 -16.5 9.203125 -16.5 Z M 9.203125 -16.5 "/></g></g></g><g fill="#1b1b1b" fill-opacity="1"><g transform="translate(13.274217, 17.918438)"><g><path d="M 7.75 -10.9375 C 8.414062 -10.9375 8.976562 -10.765625 9.4375 -10.421875 C 9.894531 -10.085938 10.125 -9.660156 10.125 -9.140625 C 10.125 -8.628906 9.882812 -8.046875 9.40625 -7.390625 C 8.925781 -6.734375 8.144531 -6.15625 7.0625 -5.65625 C 5.988281 -5.15625 4.625 -4.878906 2.96875 -4.828125 C 2.875 -4.515625 2.828125 -4.125 2.828125 -3.65625 C 2.828125 -2.6875 3.085938 -1.984375 3.609375 -1.546875 C 4.140625 -1.109375 4.722656 -0.890625 5.359375 -0.890625 C 6.429688 -0.890625 7.515625 -1.421875 8.609375 -2.484375 L 8.921875 -2.203125 C 7.210938 -0.546875 5.5625 0.28125 3.96875 0.28125 C 3.3125 0.28125 2.738281 0.117188 2.25 -0.203125 C 1.769531 -0.523438 1.40625 -0.945312 1.15625 -1.46875 C 0.914062 -2 0.796875 -2.546875 0.796875 -3.109375 C 0.796875 -4.222656 1.117188 -5.394531 1.765625 -6.625 C 2.410156 -7.851562 3.269531 -8.878906 4.34375 -9.703125 C 5.414062 -10.523438 6.550781 -10.9375 7.75 -10.9375 Z M 3.109375 -5.28125 C 4.191406 -5.363281 5.066406 -5.550781 5.734375 -5.84375 C 6.390625 -6.125 6.921875 -6.488281 7.328125 -6.9375 C 7.734375 -7.394531 8.023438 -7.84375 8.203125 -8.28125 C 8.378906 -8.726562 8.46875 -9.09375 8.46875 -9.375 C 8.46875 -9.644531 8.367188 -9.894531 8.171875 -10.125 C 7.972656 -10.363281 7.6875 -10.484375 7.3125 -10.484375 C 6.675781 -10.484375 6.054688 -10.1875 5.453125 -9.59375 C 4.859375 -9 4.347656 -8.296875 3.921875 -7.484375 C 3.503906 -6.671875 3.234375 -5.9375 3.109375 -5.28125 Z M 3.109375 -5.28125 "/></g></g></g><g clip-path="url(#1009419435)"><g fill="#1b1b1b" fill-opacity="1"><g transform="translate(22.078235, 17.918438)"><g><path d="M 3.75 -5.375 C 4.757812 -7.039062 5.773438 -8.382812 6.796875 -9.40625 C 7.816406 -10.425781 8.765625 -10.9375 9.640625 -10.9375 C 10.003906 -10.9375 10.3125 -10.8125 10.5625 -10.5625 C 10.8125 -10.3125 10.9375 -9.957031 10.9375 -9.5 C 10.9375 -9.0625 10.820312 -8.4375 10.59375 -7.625 L 9.09375 -2.46875 C 8.945312 -1.957031 8.875 -1.601562 8.875 -1.40625 C 8.875 -1.269531 8.910156 -1.164062 8.984375 -1.09375 C 9.054688 -1.03125 9.128906 -1 9.203125 -1 C 9.398438 -1 9.695312 -1.207031 10.09375 -1.625 C 10.488281 -2.039062 10.757812 -2.367188 10.90625 -2.609375 L 11.265625 -2.328125 C 10.773438 -1.640625 10.222656 -1.03125 9.609375 -0.5 C 8.992188 0.0195312 8.414062 0.28125 7.875 0.28125 C 7.613281 0.28125 7.394531 0.179688 7.21875 -0.015625 C 7.050781 -0.210938 6.96875 -0.476562 6.96875 -0.8125 C 6.96875 -1.164062 7.050781 -1.632812 7.21875 -2.21875 L 8.84375 -7.9375 C 8.863281 -7.988281 8.90625 -8.117188 8.96875 -8.328125 C 9.03125 -8.546875 9.0625 -8.757812 9.0625 -8.96875 C 9.0625 -9.175781 9.003906 -9.332031 8.890625 -9.4375 C 8.785156 -9.550781 8.671875 -9.609375 8.546875 -9.609375 C 8.171875 -9.609375 7.632812 -9.296875 6.9375 -8.671875 C 6.25 -8.054688 5.578125 -7.28125 4.921875 -6.34375 C 4.367188 -5.5625 3.921875 -4.835938 3.578125 -4.171875 C 3.234375 -3.515625 2.925781 -2.710938 2.65625 -1.765625 C 2.445312 -1.078125 2.28125 -0.488281 2.15625 0 L 0.3125 0 L 2.578125 -7.96875 C 2.597656 -8.007812 2.65625 -8.207031 2.75 -8.5625 C 2.84375 -8.925781 2.890625 -9.191406 2.890625 -9.359375 C 2.890625 -9.546875 2.820312 -9.691406 2.6875 -9.796875 C 2.550781 -9.898438 2.375 -9.953125 2.15625 -9.953125 C 1.925781 -9.953125 1.609375 -9.9375 1.203125 -9.90625 L 1.203125 -10.328125 L 4.859375 -10.9375 L 5.28125 -10.9375 L 3.703125 -5.4375 Z M 3.75 -5.375 "/></g></g></g></g></g></g></svg>