<svg xmlns="http://www.w3.org/2000/svg" xmlns:xlink="http://www.w3.org/1999/xlink" width="100" zoomAndPan="magnify" viewBox="0 0 75 37.5" height="50" preserveAspectRatio="xMidYMid meet" version="1.0"><defs><g/><clipPath id="69149ee508"><path d="M 18 22 L 22.886719 22 L 22.886719 27 L 18 27 Z M 18 22 " clip-rule="nonzero"/></clipPath><clipPath id="b5ed553cfd"><rect x="0" width="23" y="0" height="32"/></clipPath><clipPath id="290c440dc2"><path d="M 15 0.761719 L 29 0.761719 L 29 19 L 15 19 Z M 15 0.761719 " clip-rule="nonzero"/></clipPath><clipPath id="2b3f3d8eed"><path d="M 36 6 L 47.574219 6 L 47.574219 19 L 36 19 Z M 36 6 " clip-rule="nonzero"/></clipPath><clipPath id="b648e21763"><rect x="0" width="48" y="0" height="25"/></clipPath></defs><g transform="matrix(1, 0, 0, 1, 47, -0.000000000000001443)"><g clip-path="url(#b5ed553cfd)"><g fill="#1b1b1b" fill-opacity="1"><g transform="translate(1.117134, 25.868521)"><g><path d="M 5 0.1875 C 3.625 0.1875 2.554688 -0.332031 1.796875 -1.375 C 1.046875 -2.425781 0.671875 -3.832031 0.671875 -5.59375 C 0.671875 -7.363281 1.054688 -8.773438 1.828125 -9.828125 C 2.609375 -10.878906 3.679688 -11.40625 5.046875 -11.40625 C 5.984375 -11.40625 6.707031 -11.195312 7.21875 -10.78125 C 7.726562 -10.363281 8.082031 -9.941406 8.28125 -9.515625 L 8.4375 -9.515625 L 8.4375 -11.171875 L 11.765625 -11.171875 L 11.765625 0 L 8.4375 0 L 8.4375 -1.796875 L 8.28125 -1.796875 C 8.0625 -1.347656 7.695312 -0.90625 7.1875 -0.46875 C 6.675781 -0.03125 5.945312 0.1875 5 0.1875 Z M 6.25 -2.453125 C 6.988281 -2.453125 7.539062 -2.765625 7.90625 -3.390625 C 8.28125 -4.015625 8.46875 -4.753906 8.46875 -5.609375 C 8.46875 -6.453125 8.28125 -7.1875 7.90625 -7.8125 C 7.539062 -8.445312 6.988281 -8.765625 6.25 -8.765625 C 5.476562 -8.765625 4.910156 -8.457031 4.546875 -7.84375 C 4.191406 -7.226562 4.015625 -6.492188 4.015625 -5.640625 C 4.015625 -4.765625 4.191406 -4.015625 4.546875 -3.390625 C 4.910156 -2.765625 5.476562 -2.453125 6.25 -2.453125 Z M 6.25 -2.453125 "/></g></g></g><g fill="#1b1b1b" fill-opacity="1"><g transform="translate(12.43329, 25.868521)"><g><path d="M 1.484375 -11.171875 L 4.75 -11.171875 L 4.75 0 L 1.484375 0 Z M 3.109375 -13.03125 C 2.597656 -13.03125 2.171875 -13.203125 1.828125 -13.546875 C 1.492188 -13.890625 1.328125 -14.304688 1.328125 -14.796875 C 1.328125 -15.304688 1.492188 -15.734375 1.828125 -16.078125 C 2.171875 -16.421875 2.597656 -16.59375 3.109375 -16.59375 C 3.609375 -16.59375 4.03125 -16.421875 4.375 -16.078125 C 4.726562 -15.734375 4.90625 -15.304688 4.90625 -14.796875 C 4.90625 -14.304688 4.726562 -13.890625 4.375 -13.546875 C 4.03125 -13.203125 3.609375 -13.03125 3.109375 -13.03125 Z M 3.109375 -13.03125 "/></g></g></g><g clip-path="url(#69149ee508)"><g fill="#1b1b1b" fill-opacity="1"><g transform="translate(16.972419, 25.868521)"><g><path d="M 3.546875 0.1875 C 3.023438 0.1875 2.59375 0.015625 2.25 -0.328125 C 1.914062 -0.679688 1.75 -1.113281 1.75 -1.625 C 1.75 -2.132812 1.914062 -2.5625 2.25 -2.90625 C 2.59375 -3.25 3.023438 -3.421875 3.546875 -3.421875 C 4.066406 -3.421875 4.5 -3.25 4.84375 -2.90625 C 5.1875 -2.5625 5.359375 -2.132812 5.359375 -1.625 C 5.359375 -1.113281 5.179688 -0.679688 4.828125 -0.328125 C 4.484375 0.015625 4.054688 0.1875 3.546875 0.1875 Z M 3.546875 0.1875 "/></g></g></g></g></g></g><g transform="matrix(1, 0, 0, 1, 1, 8)"><g clip-path="url(#b648e21763)"><g fill="#1b1b1b" fill-opacity="1"><g transform="translate(0.897819, 17.918438)"><g><path d="M 15.984375 -12.296875 L 15.59375 -12.296875 C 15.644531 -12.515625 15.671875 -12.710938 15.671875 -12.890625 C 15.671875 -13.722656 15.394531 -14.335938 14.84375 -14.734375 C 14.289062 -15.128906 13.550781 -15.328125 12.625 -15.328125 L 9.359375 -15.328125 L 7.515625 -8.90625 L 9.609375 -8.90625 C 11.191406 -8.90625 12.222656 -9.675781 12.703125 -11.21875 L 13.15625 -11.21875 L 11.5 -5.484375 L 11.046875 -5.484375 C 11.191406 -5.921875 11.265625 -6.332031 11.265625 -6.71875 C 11.265625 -7.226562 11.113281 -7.582031 10.8125 -7.78125 C 10.507812 -7.976562 10.070312 -8.078125 9.5 -8.078125 L 7.265625 -8.078125 L 5.59375 -2.21875 C 5.53125 -1.96875 5.5 -1.769531 5.5 -1.625 C 5.5 -1.082031 5.84375 -0.8125 6.53125 -0.8125 L 8.328125 -0.8125 C 9.804688 -0.8125 11.097656 -1.148438 12.203125 -1.828125 C 13.316406 -2.503906 14.113281 -3.378906 14.59375 -4.453125 L 15.078125 -4.453125 L 13.546875 0 L 0.40625 0 L 0.359375 -0.4375 C 1.015625 -0.4375 1.53125 -0.519531 1.90625 -0.6875 C 2.28125 -0.851562 2.578125 -1.125 2.796875 -1.5 C 3.023438 -1.875 3.238281 -2.410156 3.4375 -3.109375 L 6.046875 -12.25 C 6.421875 -13.519531 6.609375 -14.273438 6.609375 -14.515625 C 6.609375 -15.023438 6.429688 -15.351562 6.078125 -15.5 C 5.722656 -15.644531 5.273438 -15.71875 4.734375 -15.71875 L 4.859375 -16.140625 L 17.078125 -16.140625 Z M 15.984375 -12.296875 "/></g></g></g><g clip-path="url(#290c440dc2)"><g fill="#1b1b1b" fill-opacity="1"><g transform="translate(15.18054, 17.918438)"><g><path d="M 9.234375 -2.25 C 9.085938 -1.71875 9.015625 -1.367188 9.015625 -1.203125 C 9.015625 -1.097656 9.039062 -1.015625 9.09375 -0.953125 C 9.15625 -0.890625 9.226562 -0.859375 9.3125 -0.859375 C 9.5 -0.859375 9.773438 -1.019531 10.140625 -1.34375 C 10.503906 -1.675781 10.847656 -2.082031 11.171875 -2.5625 L 11.5 -2.25 C 11.007812 -1.53125 10.4375 -0.925781 9.78125 -0.4375 C 9.125 0.0390625 8.582031 0.28125 8.15625 0.28125 C 7.851562 0.28125 7.613281 0.171875 7.4375 -0.046875 C 7.257812 -0.265625 7.171875 -0.519531 7.171875 -0.8125 C 7.171875 -1.070312 7.203125 -1.347656 7.265625 -1.640625 C 7.335938 -1.929688 7.394531 -2.132812 7.4375 -2.25 L 7.984375 -4.109375 L 7.9375 -4.15625 C 7.175781 -3.03125 6.335938 -2.007812 5.421875 -1.09375 C 4.515625 -0.175781 3.648438 0.28125 2.828125 0.28125 C 2.148438 0.28125 1.625 -0.0234375 1.25 -0.640625 C 0.875 -1.265625 0.6875 -1.953125 0.6875 -2.703125 C 0.6875 -3.910156 1.054688 -5.160156 1.796875 -6.453125 C 2.546875 -7.742188 3.472656 -8.8125 4.578125 -9.65625 C 5.691406 -10.507812 6.757812 -10.9375 7.78125 -10.9375 C 8.507812 -10.9375 9.128906 -10.597656 9.640625 -9.921875 L 10.953125 -14.515625 C 11.097656 -15.023438 11.171875 -15.394531 11.171875 -15.625 C 11.171875 -15.863281 11.070312 -16.015625 10.875 -16.078125 C 10.6875 -16.140625 10.4375 -16.171875 10.125 -16.171875 L 9.453125 -16.140625 L 9.421875 -16.5 L 13.0625 -17.15625 L 13.484375 -17.15625 Z M 4.671875 -8.234375 C 4.085938 -7.421875 3.613281 -6.519531 3.25 -5.53125 C 2.882812 -4.550781 2.703125 -3.65625 2.703125 -2.84375 C 2.703125 -2.238281 2.804688 -1.789062 3.015625 -1.5 C 3.234375 -1.21875 3.53125 -1.078125 3.90625 -1.078125 C 4.507812 -1.078125 5.222656 -1.519531 6.046875 -2.40625 C 6.878906 -3.300781 7.597656 -4.367188 8.203125 -5.609375 C 8.804688 -6.847656 9.109375 -7.9375 9.109375 -8.875 C 9.109375 -9.414062 8.953125 -9.816406 8.640625 -10.078125 C 8.335938 -10.347656 8.015625 -10.484375 7.671875 -10.484375 C 7.210938 -10.484375 6.710938 -10.273438 6.171875 -9.859375 C 5.640625 -9.453125 5.140625 -8.910156 4.671875 -8.234375 Z M 4.671875 -8.234375 "/></g></g></g></g><g fill="#1b1b1b" fill-opacity="1"><g transform="translate(25.467874, 17.918438)"><g><path d="M 4.109375 -10.9375 C 4.367188 -10.9375 4.59375 -10.835938 4.78125 -10.640625 C 4.976562 -10.453125 5.078125 -10.210938 5.078125 -9.921875 C 5.078125 -9.585938 4.992188 -9.148438 4.828125 -8.609375 L 3.203125 -3.015625 C 3.046875 -2.378906 2.96875 -1.929688 2.96875 -1.671875 C 2.96875 -1.492188 3.023438 -1.351562 3.140625 -1.25 C 3.265625 -1.144531 3.398438 -1.09375 3.546875 -1.09375 C 3.984375 -1.09375 4.601562 -1.492188 5.40625 -2.296875 C 6.21875 -3.097656 6.988281 -4.082031 7.71875 -5.25 C 8.457031 -6.425781 8.96875 -7.53125 9.25 -8.5625 L 9.859375 -10.671875 L 11.65625 -10.671875 L 9.3125 -2.53125 C 9.164062 -1.957031 9.09375 -1.5625 9.09375 -1.34375 C 9.09375 -1.25 9.128906 -1.160156 9.203125 -1.078125 C 9.273438 -0.992188 9.347656 -0.953125 9.421875 -0.953125 C 9.617188 -0.953125 9.875 -1.109375 10.1875 -1.421875 C 10.507812 -1.742188 10.804688 -2.113281 11.078125 -2.53125 L 11.40625 -2.265625 C 10.957031 -1.617188 10.441406 -1.03125 9.859375 -0.5 C 9.285156 0.0195312 8.71875 0.28125 8.15625 0.28125 C 7.851562 0.28125 7.628906 0.164062 7.484375 -0.0625 C 7.335938 -0.289062 7.265625 -0.539062 7.265625 -0.8125 C 7.265625 -1.445312 7.46875 -2.4375 7.875 -3.78125 L 8.296875 -5.21875 L 8.25 -5.234375 C 7.40625 -3.816406 6.445312 -2.539062 5.375 -1.40625 C 4.3125 -0.28125 3.347656 0.28125 2.484375 0.28125 C 1.578125 0.28125 1.125 -0.257812 1.125 -1.34375 C 1.125 -1.613281 1.171875 -1.945312 1.265625 -2.34375 C 1.359375 -2.738281 1.523438 -3.351562 1.765625 -4.1875 L 2.875 -8.015625 C 2.945312 -8.285156 3.003906 -8.503906 3.046875 -8.671875 C 3.085938 -8.835938 3.109375 -9 3.109375 -9.15625 C 3.109375 -9.351562 3.070312 -9.488281 3 -9.5625 C 2.925781 -9.632812 2.851562 -9.671875 2.78125 -9.671875 C 2.519531 -9.671875 2.265625 -9.535156 2.015625 -9.265625 C 1.773438 -9.003906 1.484375 -8.628906 1.140625 -8.140625 L 0.8125 -8.375 C 1.144531 -8.976562 1.625 -9.554688 2.25 -10.109375 C 2.875 -10.660156 3.492188 -10.9375 4.109375 -10.9375 Z M 4.109375 -10.9375 "/></g></g></g><g clip-path="url(#2b3f3d8eed)"><g fill="#1b1b1b" fill-opacity="1"><g transform="translate(35.755207, 17.918438)"><g><path d="M 3.75 -5.375 C 4.757812 -7.039062 5.773438 -8.382812 6.796875 -9.40625 C 7.816406 -10.425781 8.765625 -10.9375 9.640625 -10.9375 C 10.003906 -10.9375 10.3125 -10.8125 10.5625 -10.5625 C 10.8125 -10.3125 10.9375 -9.957031 10.9375 -9.5 C 10.9375 -9.0625 10.820312 -8.4375 10.59375 -7.625 L 9.09375 -2.46875 C 8.945312 -1.957031 8.875 -1.601562 8.875 -1.40625 C 8.875 -1.269531 8.910156 -1.164062 8.984375 -1.09375 C 9.054688 -1.03125 9.128906 -1 9.203125 -1 C 9.398438 -1 9.695312 -1.207031 10.09375 -1.625 C 10.488281 -2.039062 10.757812 -2.367188 10.90625 -2.609375 L 11.265625 -2.328125 C 10.773438 -1.640625 10.222656 -1.03125 9.609375 -0.5 C 8.992188 0.0195312 8.414062 0.28125 7.875 0.28125 C 7.613281 0.28125 7.394531 0.179688 7.21875 -0.015625 C 7.050781 -0.210938 6.96875 -0.476562 6.96875 -0.8125 C 6.96875 -1.164062 7.050781 -1.632812 7.21875 -2.21875 L 8.84375 -7.9375 C 8.863281 -7.988281 8.90625 -8.117188 8.96875 -8.328125 C 9.03125 -8.546875 9.0625 -8.757812 9.0625 -8.96875 C 9.0625 -9.175781 9.003906 -9.332031 8.890625 -9.4375 C 8.785156 -9.550781 8.671875 -9.609375 8.546875 -9.609375 C 8.171875 -9.609375 7.632812 -9.296875 6.9375 -8.671875 C 6.25 -8.054688 5.578125 -7.28125 4.921875 -6.34375 C 4.367188 -5.5625 3.921875 -4.835938 3.578125 -4.171875 C 3.234375 -3.515625 2.925781 -2.710938 2.65625 -1.765625 C 2.445312 -1.078125 2.28125 -0.488281 2.15625 0 L 0.3125 0 L 2.578125 -7.96875 C 2.597656 -8.007812 2.65625 -8.207031 2.75 -8.5625 C 2.84375 -8.925781 2.890625 -9.191406 2.890625 -9.359375 C 2.890625 -9.546875 2.820312 -9.691406 2.6875 -9.796875 C 2.550781 -9.898438 2.375 -9.953125 2.15625 -9.953125 C 1.925781 -9.953125 1.609375 -9.9375 1.203125 -9.90625 L 1.203125 -10.328125 L 4.859375 -10.9375 L 5.28125 -10.9375 L 3.703125 -5.4375 Z M 3.75 -5.375 "/></g></g></g></g></g></g></svg>